<!DOCTYPE svg PUBLIC "-//W3C//DTD SVG 1.1//EN" "http://www.w3.org/Graphics/SVG/1.1/DTD/svg11.dtd">
<svg xmlns="http://www.w3.org/2000/svg" xmlns:xlink="http://www.w3.org/1999/xlink" xmlns:xml="http://www.w3.org/XML/1998/namespace" version="1.1" x="0" y="0" width="300" height="300" overflow="inherit" preserveAspectRatio="xMidYMid" font-size="0" xml:space="default" xml="http://www.w3.org/XML/1998/namespace" ls="http://www.smart-software.at" isIconSupported="true" isSloganSupported="false" conditionExpression="">
  <defs xml:space="default">
    <filter x="0" y="0" width="none" height="none" color-interpolation-filters="auto" id="f1" xml:space="default">
      <feGaussianBlur stdDeviation="10" in="SourceGraphic" xml:space="default" />
    </filter>
    <filter x="0" y="0" width="200%" height="200%" color-interpolation-filters="auto" id="f4" xml:space="default">
      <feOffset dx="20" dy="20" in="SourceGraphic" result="offOut" xml:space="default" />
      <feColorMatrix type="matrix" values="0.2 0 0 0 0 0 0.2 0 0 0 0 0 0.2 0 0 0 0 0 1 0" in="offOut" result="matrixOut" xml:space="default" />
      <feGaussianBlur stdDeviation="10" in="matrixOut" xml:space="default" />
    </filter>
    <radialGradient cx="50%" cy="50%" r="65%" fx="5%" fy="5%" spreadMethod="Pad" gradientUnits="objectboundingbox" id="radGrad" xml:space="default">
      <stop offset="0%" stop-color="#FFFFFF" stop-opacity="0.2" xml:space="default" />
      <stop offset="100%" stop-color="#CACACA" stop-opacity="0.8" xml:space="default" />
    </radialGradient>
  </defs>
  <rect x="0" y="0" width="300" height="300" id="background" xml:space="default" style="fill:none;" />
  <g xml:space="default">
    <path d="M82.03778 153.3167 C82.2759 153.4357 82.55229 153.5548 82.86694 153.6738 L82.86694 153.6738 C83.1816 153.7929 83.52177 153.9035 83.88746 154.0055 L83.88746 154.0055 C84.25314 154.1075 84.62733 154.1926 85.01002 154.2606 L85.01002 154.2606 C85.39272 154.3287 85.77966 154.3627 86.17085 154.3627 L86.17085 154.3627 C86.76615 154.3627 87.22964 154.2691 87.5613 154.082 L87.5613 154.082 C87.89297 153.8949 88.0588 153.5463 88.0588 153.036 L88.0588 153.036 C88.0588 152.6278 87.83769 152.3259 87.39546 152.1303 L87.39546 152.1303 C86.95325 151.9347 86.40897 151.7434 85.76265 151.5563 L85.76265 151.5563 C85.28641 151.4202 84.78891 151.2586 84.27015 151.0715 L84.27015 151.0715 C83.75139 150.8844 83.27515 150.6336 82.84143 150.3189 L82.84143 150.3189 C82.40772 150.0043 82.05054 149.5918 81.7699 149.0815 L81.7699 149.0815 C81.48926 148.5713 81.34894 147.925 81.34894 147.1426 L81.34894 147.1426 C81.34894 145.7989 81.76565 144.7741 82.59906 144.0683 L82.59906 144.0683 C83.43248 143.3624 84.63158 143.0095 86.19637 143.0095 L86.19637 143.0095 C87.21688 143.0095 88.17361 143.0988 89.06656 143.2774 L89.06656 143.2774 C89.9595 143.456 90.67811 143.6643 91.22239 143.9025 L91.22239 143.9025 L90.48251 146.6068 C90.04029 146.4367 89.47475 146.2624 88.78592 146.0838 L88.78592 146.0838 C88.09707 145.9052 87.39546 145.8159 86.68111 145.8159 L86.68111 145.8159 C86.08581 145.8159 85.64359 145.9052 85.35445 146.0838 L85.35445 146.0838 C85.0653 146.2624 84.92072 146.5728 84.92072 147.015 L84.92072 147.015 C84.92072 147.4062 85.1461 147.6996 85.59682 147.8952 L85.59682 147.8952 C86.04755 148.0908 86.59607 148.2821 87.24239 148.4692 L87.24239 148.4692 C87.71863 148.6053 88.21613 148.7626 88.73489 148.9412 L88.73489 148.9412 C89.25365 149.1198 89.72564 149.3622 90.15085 149.6683 L90.15085 149.6683 C90.57606 149.9745 90.92899 150.3699 91.20963 150.8547 L91.20963 150.8547 C91.49027 151.3394 91.63058 151.9475 91.63058 152.6788 L91.63058 152.6788 C91.63058 154.1075 91.16711 155.2131 90.24014 155.9955 L90.24014 155.9955 C89.31318 156.7779 87.92273 157.1691 86.0688 157.1691 L86.0688 157.1691 C85.0653 157.1691 84.12983 157.0798 83.2624 156.9012 L83.2624 156.9012 C82.39497 156.7226 81.68911 156.4632 81.14484 156.1231 C81.14484 156.1231 81.14484 156.1231 82.03778 153.3167 L81.14484 156.1231 L82.03778 153.3167 M103.4152 156.7864 L103.4152 149.4132 C103.4152 148.2566 103.2409 147.4275 102.8922 146.9257 L102.8922 146.9257 C102.5435 146.424 101.9014 146.1731 100.966 146.1731 L100.966 146.1731 C100.2856 146.1731 99.66058 146.3899 99.09079 146.8237 L99.09079 146.8237 C98.521 147.2574 98.14256 147.8314 97.95547 148.5458 L97.95547 148.5458 L97.95547 156.7864 L94.38367 156.7864 L94.38367 138.9274 L97.95547 138.9274 L97.95547 145.025 L98.26162 145.025 C98.72086 144.4297 99.29489 143.945 99.98373 143.5708 L99.98373 143.5708 C100.6726 143.1966 101.5443 143.0095 102.5988 143.0095 L102.5988 143.0095 C103.3302 143.0095 103.968 143.0988 104.5123 143.2774 L104.5123 143.2774 C105.0565 143.456 105.5115 143.7621 105.8772 144.1958 L105.8772 144.1958 C106.2429 144.6296 106.5193 145.2078 106.7064 145.9307 L106.7064 145.9307 C106.8934 146.6536 106.987 147.5508 106.987 148.6223 L106.987 148.6223 L106.987 156.7864 L103.4152 156.7864 M110.538 144.3106 C111.3033 143.9705 112.2431 143.6898 113.3571 143.4687 L113.3571 143.4687 C114.4712 143.2476 115.6235 143.1371 116.8141 143.1371 L116.8141 143.1371 C117.7496 143.1371 118.5362 143.2476 119.174 143.4687 L119.174 143.4687 C119.8119 143.6898 120.3178 144.0087 120.692 144.4255 L120.692 144.4255 C121.0662 144.8422 121.3341 145.3439 121.4957 145.9307 L121.4957 145.9307 C121.6573 146.5175 121.7381 147.1681 121.7381 147.8824 L121.7381 147.8824 C121.7381 148.7499 121.704 149.6088 121.636 150.4592 L121.636 150.4592 C121.568 151.3096 121.534 152.2111 121.534 153.1636 L121.534 153.1636 C121.534 153.8099 121.5765 154.4392 121.6615 155.0515 L121.6615 155.0515 C121.7466 155.6638 121.8826 156.2506 122.0697 156.8119 L122.0697 156.8119 L119.1613 156.8119 L118.5745 154.8219 L118.2683 154.8219 C117.8261 155.4172 117.2648 155.9275 116.5845 156.3527 L116.5845 156.3527 C115.9041 156.7779 115.0282 156.9905 113.9567 156.9905 L113.9567 156.9905 C113.3103 156.9905 112.7193 156.897 112.1835 156.7099 L112.1835 156.7099 C111.6478 156.5228 111.1885 156.2549 110.8058 155.9062 L110.8058 155.9062 C110.4231 155.5575 110.1255 155.1451 109.9129 154.6688 L109.9129 154.6688 C109.7003 154.1926 109.594 153.6738 109.594 153.1125 L109.594 153.1125 C109.594 151.5988 110.1 150.455 111.112 149.6811 L111.112 149.6811 C112.124 148.9072 113.659 148.5202 115.717 148.5202 L115.717 148.5202 C116.1933 148.5202 116.6695 148.5585 117.1458 148.6351 L117.1458 148.6351 C117.622 148.7116 117.9537 148.7669 118.1408 148.8009 L118.1408 148.8009 C118.1918 148.4437 118.2173 148.1376 118.2173 147.8824 L118.2173 147.8824 C118.2173 147.2361 118.0557 146.7599 117.7326 146.4537 L117.7326 146.4537 C117.4094 146.1476 116.8056 145.9945 115.9212 145.9945 L115.9212 145.9945 C115.1047 145.9945 114.3096 146.0923 113.5357 146.2879 L113.5357 146.2879 C112.7618 146.4835 112.0772 146.7259 111.4819 147.015 C111.4819 147.015 111.4819 147.015 110.538 144.3106 L111.4819 147.015 L110.538 144.3106 M115.2068 154.1331 C116.0062 154.1331 116.644 153.946 117.1203 153.5718 L117.1203 153.5718 C117.5965 153.1976 117.9452 152.8064 118.1663 152.3982 L118.1663 152.3982 L118.1663 150.8674 C118.0812 150.8334 117.9494 150.7994 117.7708 150.7654 L117.7708 150.7654 C117.5922 150.7314 117.3966 150.6973 117.184 150.6633 L117.184 150.6633 C116.9714 150.6293 116.7588 150.6038 116.5462 150.5868 L116.5462 150.5868 C116.3336 150.5698 116.1423 150.5613 115.9722 150.5613 L115.9722 150.5613 C115.0537 150.5613 114.3734 150.7271 113.9312 151.0588 L113.9312 151.0588 C113.4889 151.3904 113.2678 151.8029 113.2678 152.2961 L113.2678 152.2961 C113.2678 152.9084 113.4422 153.3677 113.7908 153.6738 L113.7908 153.6738 C114.1395 153.98 114.6115 154.1331 115.2068 154.1331 C115.2068 154.1331 115.2068 154.1331 115.2068 154.1331 L115.2068 154.1331 L115.2068 154.1331 M133.349 146.6578 C132.8387 146.4877 132.3285 146.4027 131.8182 146.4027 L131.8182 146.4027 C131.0698 146.4027 130.4533 146.5813 129.9685 146.9385 L129.9685 146.9385 C129.4838 147.2956 129.1649 147.7464 129.0118 148.2906 L129.0118 148.2906 L129.0118 156.7864 L125.44 156.7864 L125.44 143.3922 L128.2464 143.3922 L128.6291 145.2546 L128.9608 145.2546 C129.3009 144.5573 129.7559 144.0215 130.3257 143.6473 L130.3257 143.6473 C130.8955 143.2731 131.5461 143.086 132.2774 143.086 L132.2774 143.086 C132.7367 143.086 133.2639 143.1796 133.8592 143.3667 C133.8592 143.3667 133.8592 143.3667 133.349 146.6578 L133.8592 143.3667 L133.349 146.6578 M135.7921 143.3922 L138.3434 143.3922 L138.7771 145.0505 L139.0833 145.0505 C139.6105 144.3702 140.2228 143.8599 140.9202 143.5197 L140.9202 143.5197 C141.6175 143.1796 142.4339 143.0095 143.3694 143.0095 L143.3694 143.0095 C145.1723 143.0095 146.5245 143.5495 147.4259 144.6295 L147.4259 144.6295 C148.3274 145.7096 148.7781 147.4232 148.7781 149.7704 L148.7781 149.7704 C148.7781 150.8929 148.6335 151.9092 148.3444 152.8192 L148.3444 152.8192 C148.0553 153.7291 147.6301 154.5115 147.0688 155.1663 L147.0688 155.1663 C146.5075 155.8212 145.8144 156.3229 144.9895 156.6716 L144.9895 156.6716 C144.1646 157.0203 143.2163 157.1946 142.1448 157.1946 L142.1448 157.1946 C141.5665 157.1946 141.0648 157.1393 140.6395 157.0288 L140.6395 157.0288 C140.2143 156.9182 139.7891 156.7694 139.3639 156.5823 L139.3639 156.5823 L139.3639 161.8634 L135.7921 161.8634 L135.7921 143.3922 M142.2724 145.9945 C141.456 145.9945 140.8266 146.1773 140.3844 146.543 L140.3844 146.543 C139.9422 146.9087 139.602 147.4742 139.3639 148.2396 L139.3639 148.2396 L139.3639 153.4442 C139.6531 153.6823 139.9762 153.8694 140.3334 154.0055 L140.3334 154.0055 C140.6906 154.1416 141.1413 154.2096 141.6856 154.2096 L141.6856 154.2096 C142.8421 154.2096 143.7011 153.8482 144.2624 153.1253 L144.2624 153.1253 C144.8237 152.4025 145.1043 151.2501 145.1043 149.6683 L145.1043 149.6683 C145.1043 148.5288 144.8874 147.6316 144.4537 146.9767 L144.4537 146.9767 C144.02 146.3219 143.2929 145.9945 142.2724 145.9945 C142.2724 145.9945 142.2724 145.9945 142.2724 145.9945 L142.2724 145.9945 L142.2724 145.9945 M158.7007 153.3167 C158.9388 153.4357 159.2152 153.5548 159.5299 153.6738 L159.5299 153.6738 C159.8445 153.7929 160.1847 153.9035 160.5504 154.0055 L160.5504 154.0055 C160.9161 154.1075 161.2903 154.1926 161.6729 154.2606 L161.6729 154.2606 C162.0556 154.3287 162.4426 154.3627 162.8338 154.3627 L162.8338 154.3627 C163.4291 154.3627 163.8926 154.2691 164.2242 154.082 L164.2242 154.082 C164.5559 153.8949 164.7217 153.5463 164.7217 153.036 L164.7217 153.036 C164.7217 152.6278 164.5006 152.3259 164.0584 152.1303 L164.0584 152.1303 C163.6162 151.9347 163.0719 151.7434 162.4256 151.5563 L162.4256 151.5563 C161.9493 151.4202 161.4518 151.2586 160.9331 151.0715 L160.9331 151.0715 C160.4143 150.8844 159.9381 150.6336 159.5044 150.3189 L159.5044 150.3189 C159.0706 150.0043 158.7135 149.5918 158.4328 149.0815 L158.4328 149.0815 C158.1522 148.5713 158.0119 147.925 158.0119 147.1426 L158.0119 147.1426 C158.0119 145.7989 158.4286 144.7741 159.262 144.0683 L159.262 144.0683 C160.0954 143.3624 161.2945 143.0095 162.8593 143.0095 L162.8593 143.0095 C163.8798 143.0095 164.8365 143.0988 165.7295 143.2774 L165.7295 143.2774 C166.6224 143.456 167.341 143.6643 167.8853 143.9025 L167.8853 143.9025 L167.1454 146.6068 C166.7032 146.4367 166.1377 146.2624 165.4488 146.0838 L165.4488 146.0838 C164.76 145.9052 164.0584 145.8159 163.344 145.8159 L163.344 145.8159 C162.7487 145.8159 162.3065 145.9052 162.0174 146.0838 L162.0174 146.0838 C161.7282 146.2624 161.5836 146.5728 161.5836 147.015 L161.5836 147.015 C161.5836 147.4062 161.809 147.6996 162.2598 147.8952 L162.2598 147.8952 C162.7105 148.0908 163.259 148.2821 163.9053 148.4692 L163.9053 148.4692 C164.3815 148.6053 164.8791 148.7626 165.3978 148.9412 L165.3978 148.9412 C165.9166 149.1198 166.3886 149.3622 166.8138 149.6683 L166.8138 149.6683 C167.239 149.9745 167.5919 150.3699 167.8726 150.8547 L167.8726 150.8547 C168.1532 151.3394 168.2935 151.9475 168.2935 152.6788 L168.2935 152.6788 C168.2935 154.1075 167.83 155.2131 166.9031 155.9955 L166.9031 155.9955 C165.9761 156.7779 164.5857 157.1691 162.7317 157.1691 L162.7317 157.1691 C161.7282 157.1691 160.7928 157.0798 159.9253 156.9012 L159.9253 156.9012 C159.0579 156.7226 158.352 156.4632 157.8078 156.1231 C157.8078 156.1231 157.8078 156.1231 158.7007 153.3167 L157.8078 156.1231 L158.7007 153.3167 M170.2812 150.1021 C170.2812 147.8909 170.868 146.1561 172.0416 144.8974 L172.0416 144.8974 C173.2152 143.6388 174.8905 143.0095 177.0676 143.0095 L177.0676 143.0095 C178.2072 143.0095 179.2022 143.1881 180.0526 143.5453 L180.0526 143.5453 C180.903 143.9025 181.6089 144.3999 182.1702 145.0378 L182.1702 145.0378 C182.7315 145.6756 183.1524 146.424 183.4331 147.2829 L183.4331 147.2829 C183.7137 148.1418 183.854 149.0815 183.854 150.1021 L183.854 150.1021 C183.854 151.1906 183.7009 152.1728 183.3948 153.0488 L183.3948 153.0488 C183.0886 153.9247 182.6464 154.6688 182.0681 155.2811 L182.0681 155.2811 C181.4898 155.8934 180.7797 156.3612 179.9378 156.6843 L179.9378 156.6843 C179.0959 157.0075 178.1392 157.1691 177.0676 157.1691 L177.0676 157.1691 C175.911 157.1691 174.9075 156.9905 174.0571 156.6333 L174.0571 156.6333 C173.2067 156.2761 172.5008 155.7786 171.9396 155.1408 L171.9396 155.1408 C171.3783 154.503 170.9616 153.7546 170.6894 152.8957 L170.6894 152.8957 C170.4173 152.0368 170.2812 151.1055 170.2812 150.1021 C170.2812 150.1021 170.2812 150.1021 170.2812 150.1021 L170.2812 150.1021 L170.2812 150.1021 M173.9551 150.1021 C173.9551 150.6633 174.0146 151.1906 174.1337 151.6838 L174.1337 151.6838 C174.2527 152.1771 174.4356 152.6066 174.6822 152.9722 L174.6822 152.9722 C174.9288 153.3379 175.2477 153.6313 175.6389 153.8524 L175.6389 153.8524 C176.0301 154.0735 176.5063 154.1841 177.0676 154.1841 L177.0676 154.1841 C179.1427 154.1841 180.1802 152.8234 180.1802 150.1021 L180.1802 150.1021 C180.1802 149.5067 180.1249 148.9582 180.0144 148.4565 L180.0144 148.4565 C179.9038 147.9547 179.7252 147.521 179.4786 147.1553 L179.4786 147.1553 C179.232 146.7896 178.9088 146.5047 178.5091 146.3006 L178.5091 146.3006 C178.1094 146.0965 177.6289 145.9945 177.0676 145.9945 L177.0676 145.9945 C176.0981 145.9945 175.337 146.3177 174.7842 146.964 L174.7842 146.964 C174.2314 147.6103 173.9551 148.6563 173.9551 150.1021 C173.9551 150.1021 173.9551 150.1021 173.9551 150.1021 L173.9551 150.1021 L173.9551 150.1021 M190.4162 152.092 C190.4162 153.3847 190.8329 154.031 191.6663 154.031 L191.6663 154.031 C191.9044 154.031 192.1298 154.0098 192.3424 153.9672 L192.3424 153.9672 C192.555 153.9247 192.8059 153.8524 193.095 153.7504 L193.095 153.7504 L193.5287 156.5313 C193.1886 156.6843 192.7081 156.8332 192.0873 156.9777 L192.0873 156.9777 C191.4665 157.1223 190.8244 157.1946 190.1611 157.1946 L190.1611 157.1946 C189.0895 157.1946 188.2689 156.9565 187.6991 156.4802 L187.6991 156.4802 C187.1293 156.004 186.8444 155.2216 186.8444 154.1331 L186.8444 154.1331 L186.8444 138.9274 L190.4162 138.9274 L190.4162 152.092 M198.9353 143.3922 L198.9353 150.8164 C198.9353 151.922 199.0883 152.7299 199.3945 153.2401 L199.3945 153.2401 C199.7006 153.7504 200.2874 154.0055 201.1549 154.0055 L201.1549 154.0055 C201.9032 154.0055 202.5326 153.8099 203.0428 153.4187 L203.0428 153.4187 C203.5531 153.0275 203.9273 152.5343 204.1654 151.939 L204.1654 151.939 L204.1654 143.3922 L207.7372 143.3922 L207.7372 152.7043 C207.7372 153.4187 207.7754 154.1331 207.852 154.8474 L207.852 154.8474 C207.9285 155.5618 208.0348 156.2081 208.1709 156.7864 L208.1709 156.7864 L205.5431 156.7864 L204.8542 154.6944 L204.5736 154.6944 C204.1314 155.4087 203.5021 155.9998 202.6856 156.4675 L202.6856 156.4675 C201.8692 156.9352 200.9338 157.1691 199.8792 157.1691 L199.8792 157.1691 C199.1479 157.1691 198.5015 157.0755 197.9403 156.8884 L197.9403 156.8884 C197.379 156.7014 196.907 156.3909 196.5243 155.9572 L196.5243 155.9572 C196.1416 155.5235 195.8525 154.9495 195.6569 154.2351 L195.6569 154.2351 C195.4613 153.5208 195.3635 152.6363 195.3635 151.5818 L195.3635 151.5818 L195.3635 143.3922 L198.9353 143.3922 M210.1122 143.3922 L212.1532 143.3922 L212.1532 141.5553 L215.725 140.6113 L215.725 143.3922 L219.3223 143.3922 L219.3223 146.3772 L215.725 146.3772 L215.725 151.0205 C215.725 152.092 215.8313 152.8617 216.0439 153.3294 L216.0439 153.3294 C216.2565 153.7971 216.6774 154.031 217.3067 154.031 L217.3067 154.031 C217.698 154.031 218.0296 154.0013 218.3017 153.9417 L218.3017 153.9417 C218.5739 153.8822 218.863 153.7844 219.1692 153.6483 L219.1692 153.6483 L219.9091 156.3272 C219.3648 156.5653 218.7397 156.7694 218.0339 156.9395 L218.0339 156.9395 C217.328 157.1096 216.6434 157.1946 215.9801 157.1946 L215.9801 157.1946 C214.6534 157.1946 213.6839 156.8672 213.0716 156.2124 L213.0716 156.2124 C212.4593 155.5575 212.1532 154.5072 212.1532 153.0615 L212.1532 153.0615 L212.1532 146.3772 L210.1122 146.3772 L210.1122 143.3922 M222.481 143.3922 L226.0528 143.3922 L226.0528 156.7864 L222.481 156.7864 L222.481 143.3922 M221.9452 140.05 C221.9452 139.5057 222.1408 139.0508 222.532 138.6851 L222.532 138.6851 C222.9232 138.3194 223.476 138.1366 224.1903 138.1366 L224.1903 138.1366 C224.9217 138.1366 225.5 138.3237 225.9252 138.6978 L225.9252 138.6978 C226.3504 139.072 226.563 139.5228 226.563 140.05 L226.563 140.05 C226.563 140.5433 226.3504 140.9685 225.9252 141.3257 L225.9252 141.3257 C225.5 141.6828 224.9217 141.8614 224.1903 141.8614 L224.1903 141.8614 C223.476 141.8614 222.9232 141.6828 222.532 141.3257 L222.532 141.3257 C222.1408 140.9685 221.9452 140.5433 221.9452 140.05 C221.9452 140.05 221.9452 140.05 221.9452 140.05 L221.9452 140.05 L221.9452 140.05 M229.3667 150.1021 C229.3667 147.8909 229.9535 146.1561 231.1271 144.8974 L231.1271 144.8974 C232.3007 143.6388 233.976 143.0095 236.1531 143.0095 L236.1531 143.0095 C237.2927 143.0095 238.2877 143.1881 239.1381 143.5453 L239.1381 143.5453 C239.9886 143.9025 240.6944 144.3999 241.2557 145.0378 L241.2557 145.0378 C241.817 145.6756 242.2379 146.424 242.5186 147.2829 L242.5186 147.2829 C242.7992 148.1418 242.9395 149.0815 242.9395 150.1021 L242.9395 150.1021 C242.9395 151.1906 242.7865 152.1728 242.4803 153.0488 L242.4803 153.0488 C242.1742 153.9247 241.7319 154.6688 241.1536 155.2811 L241.1536 155.2811 C240.5753 155.8934 239.8652 156.3612 239.0233 156.6843 L239.0233 156.6843 C238.1814 157.0075 237.2247 157.1691 236.1531 157.1691 L236.1531 157.1691 C234.9966 157.1691 233.993 156.9905 233.1426 156.6333 L233.1426 156.6333 C232.2922 156.2761 231.5863 155.7786 231.0251 155.1408 L231.0251 155.1408 C230.4638 154.503 230.0471 153.7546 229.7749 152.8957 L229.7749 152.8957 C229.5028 152.0368 229.3667 151.1055 229.3667 150.1021 C229.3667 150.1021 229.3667 150.1021 229.3667 150.1021 L229.3667 150.1021 L229.3667 150.1021 M233.0406 150.1021 C233.0406 150.6633 233.1001 151.1906 233.2192 151.6838 L233.2192 151.6838 C233.3382 152.1771 233.5211 152.6066 233.7677 152.9722 L233.7677 152.9722 C234.0143 153.3379 234.3332 153.6313 234.7244 153.8524 L234.7244 153.8524 C235.1156 154.0735 235.5918 154.1841 236.1531 154.1841 L236.1531 154.1841 C238.2282 154.1841 239.2657 152.8234 239.2657 150.1021 L239.2657 150.1021 C239.2657 149.5067 239.2104 148.9582 239.0999 148.4565 L239.0999 148.4565 C238.9893 147.9547 238.8107 147.521 238.5641 147.1553 L238.5641 147.1553 C238.3175 146.7896 237.9943 146.5047 237.5946 146.3006 L237.5946 146.3006 C237.1949 146.0965 236.7144 145.9945 236.1531 145.9945 L236.1531 145.9945 C235.1837 145.9945 234.4225 146.3177 233.8697 146.964 L233.8697 146.964 C233.317 147.6103 233.0406 148.6563 233.0406 150.1021 C233.0406 150.1021 233.0406 150.1021 233.0406 150.1021 L233.0406 150.1021 L233.0406 150.1021 M254.8849 156.7864 L254.8849 149.4387 C254.8849 148.2821 254.7063 147.4487 254.3491 146.9385 L254.3491 146.9385 C253.992 146.4282 253.3626 146.1731 252.4612 146.1731 L252.4612 146.1731 C251.6958 146.1731 251.0452 146.3814 250.5095 146.7981 L250.5095 146.7981 C249.9737 147.2149 249.6038 147.7464 249.3997 148.3927 L249.3997 148.3927 C249.3997 149.7874 249.4039 151.1863 249.4124 152.5895 L249.4124 152.5895 C249.4209 153.9928 249.4252 155.3917 249.4252 156.7864 L249.4252 156.7864 L245.8534 156.7864 L245.8534 143.3922 L248.6598 143.3922 L249.0425 145.3056 L249.4252 145.3056 C249.8674 144.6763 250.4542 144.1363 251.1855 143.6856 L251.1855 143.6856 C251.9169 143.2349 252.8694 143.0095 254.043 143.0095 L254.043 143.0095 C254.7573 143.0095 255.3909 143.0988 255.9437 143.2774 L255.9437 143.2774 C256.4965 143.456 256.9557 143.7621 257.3214 144.1958 L257.3214 144.1958 C257.687 144.6296 257.9677 145.2121 258.1633 145.9435 L258.1633 145.9435 C258.3589 146.6748 258.4567 147.5933 258.4567 148.6989 L258.4567 148.6989 L258.4567 156.7864 L254.8849 156.7864 M262.1097 153.3167 C262.3478 153.4357 262.6242 153.5548 262.9388 153.6738 L262.9388 153.6738 C263.2535 153.7929 263.5937 153.9035 263.9594 154.0055 L263.9594 154.0055 C264.325 154.1075 264.6992 154.1926 265.0819 154.2606 L265.0819 154.2606 C265.4646 154.3287 265.8516 154.3627 266.2428 154.3627 L266.2428 154.3627 C266.8381 154.3627 267.3015 154.2691 267.6332 154.082 L267.6332 154.082 C267.9649 153.8949 268.1307 153.5463 268.1307 153.036 L268.1307 153.036 C268.1307 152.6278 267.9096 152.3259 267.4674 152.1303 L267.4674 152.1303 C267.0251 151.9347 266.4809 151.7434 265.8346 151.5563 L265.8346 151.5563 C265.3583 151.4202 264.8608 151.2586 264.3421 151.0715 L264.3421 151.0715 C263.8233 150.8844 263.3471 150.6336 262.9133 150.3189 L262.9133 150.3189 C262.4796 150.0043 262.1225 149.5918 261.8418 149.0815 L261.8418 149.0815 C261.5612 148.5713 261.4209 147.925 261.4209 147.1426 L261.4209 147.1426 C261.4209 145.7989 261.8376 144.7741 262.671 144.0683 L262.671 144.0683 C263.5044 143.3624 264.7035 143.0095 266.2683 143.0095 L266.2683 143.0095 C267.2888 143.0095 268.2455 143.0988 269.1385 143.2774 L269.1385 143.2774 C270.0314 143.456 270.75 143.6643 271.2943 143.9025 L271.2943 143.9025 L270.5544 146.6068 C270.1122 146.4367 269.5467 146.2624 268.8578 146.0838 L268.8578 146.0838 C268.169 145.9052 267.4674 145.8159 266.753 145.8159 L266.753 145.8159 C266.1577 145.8159 265.7155 145.9052 265.4264 146.0838 L265.4264 146.0838 C265.1372 146.2624 264.9926 146.5728 264.9926 147.015 L264.9926 147.015 C264.9926 147.4062 265.218 147.6996 265.6687 147.8952 L265.6687 147.8952 C266.1194 148.0908 266.668 148.2821 267.3143 148.4692 L267.3143 148.4692 C267.7906 148.6053 268.2881 148.7626 268.8068 148.9412 L268.8068 148.9412 C269.3256 149.1198 269.7975 149.3622 270.2228 149.6683 L270.2228 149.6683 C270.6479 149.9745 271.0009 150.3699 271.2815 150.8547 L271.2815 150.8547 C271.5622 151.3394 271.7025 151.9475 271.7025 152.6788 L271.7025 152.6788 C271.7025 154.1075 271.239 155.2131 270.312 155.9955 L270.312 155.9955 C269.3851 156.7779 267.9946 157.1691 266.1407 157.1691 L266.1407 157.1691 C265.1372 157.1691 264.2018 157.0798 263.3343 156.9012 L263.3343 156.9012 C262.4669 156.7226 261.761 156.4632 261.2167 156.1231 C261.2167 156.1231 261.2167 156.1231 262.1097 153.3167 L261.2167 156.1231 L262.1097 153.3167" xml:space="default" style="fill:#144955;" />
    <rect x="28.29752" y="126.4789" width="47.04216" height="47.04215" rx="5" ry="5" stroke="#144955" stroke-width="1.4px" id="rect2" xml:space="default" dynamic="true" strokeColor="=p.Text2DColor" strokeWidth="=p.IconStrokeWidth" style="fill:url(#radGrad);" />
    <g stroke-width="1.4" id="icon" xml:space="default" style="fill:#F14C38;">
      <path d="M69.12125 155.215 C68.66201 154.8752 68.20234 154.5359 67.74311 154.1961 L67.74311 154.1961 C67.4258 153.9616 67.10847 153.7267 66.79072 153.4922 L66.79072 153.4922 C66.65012 153.3887 66.49676 153.2309 66.32619 153.1882 L66.32619 153.1882 C66.55096 152.669 66.77529 152.1494 67.00006 151.6302 L67.00006 151.6302 C67.15431 151.2732 67.30901 150.9163 67.46326 150.5588 L67.46326 150.5588 C67.53156 150.401 67.70213 150.1485 67.69375 149.9621 L67.69375 149.9621 C67.67612 149.5637 66.33105 149.6571 66.10056 149.6404 L66.10056 149.6404 C65.52145 149.5985 64.94234 149.5566 64.36324 149.5148 L64.36324 149.5148 C64.48355 148.9533 64.60343 148.3918 64.72375 147.8303 L64.72375 147.8303 C64.80439 147.4531 64.88505 147.0758 64.96614 146.6986 L64.96614 146.6986 C65.0014 146.5329 65.14331 146.175 65.01197 146.0238 L65.01197 146.0238 C64.88681 145.881 64.5902 145.9925 64.43992 146.0185 L64.43992 146.0185 C64.09176 146.0789 63.74403 146.1393 63.39586 146.1997 L63.39586 146.1997 C62.83746 146.2966 62.27908 146.3936 61.72112 146.4906 L61.72112 146.4906 C61.71319 145.9145 61.70525 145.3385 61.69688 144.762 L61.69688 144.762 C61.6916 144.3751 61.6863 143.9877 61.68057 143.6008 L61.68057 143.6008 C61.67838 143.4311 61.73654 143.0459 61.5748 142.9331 L61.5748 142.9331 C61.42055 142.8268 61.15876 143.0119 61.01817 143.0763 L61.01817 143.0763 C60.69424 143.2253 60.37032 143.3747 60.04594 143.5236 L60.04594 143.5236 C59.52589 143.7629 59.00629 144.0022 58.48624 144.2416 L58.48624 144.2416 C58.35094 143.6841 58.21564 143.127 58.0799 142.5695 L58.0799 142.5695 C57.98911 142.1949 57.89788 141.8203 57.80709 141.4456 L57.80709 141.4456 C57.77007 141.2923 57.75288 141.0128 57.64535 140.8872 L57.64535 140.8872 C57.39281 140.5915 56.41838 141.5933 56.23196 141.74 L56.23196 141.74 C55.76391 142.108 55.29543 142.4756 54.82738 142.8436 L54.82738 142.8436 C54.58146 142.3147 54.33553 141.7859 54.08918 141.257 L54.08918 141.257 C53.92787 140.9102 53.76657 140.5633 53.60526 140.2165 L53.60526 140.2165 C53.5374 140.0706 53.44617 139.7383 53.26547 139.7101 L53.26547 139.7101 C53.08434 139.6823 52.90981 139.9714 52.80537 140.0913 L52.80537 140.0913 C52.559 140.3743 52.31264 140.6576 52.06628 140.9406 L52.06628 140.9406 C51.69035 141.3725 51.31485 141.8039 50.93892 142.2358 L50.93892 142.2358 C50.61499 141.7585 50.29106 141.2817 49.96668 140.8044 L49.96668 140.8044 C49.75426 140.4915 49.54183 140.1786 49.32941 139.8661 L49.32941 139.8661 C49.24435 139.7405 49.09495 139.4174 48.91777 139.428 L48.91777 139.428 C48.7362 139.4311 48.60354 139.744 48.51761 139.878 L48.51761 139.878 C48.31311 140.1966 48.10905 140.5153 47.90456 140.8339 L47.90456 140.8339 C47.59297 141.32 47.28138 141.8062 46.96935 142.2923 L46.96935 142.2923 C46.5899 141.8656 46.21 141.4395 45.83054 141.0128 L45.83054 141.0128 C45.58153 140.7334 45.33296 140.4536 45.08396 140.1742 L45.08396 140.1742 C44.97951 140.0569 44.80234 139.7709 44.62385 139.7982 L44.62385 139.7982 C44.44492 139.8251 44.34884 140.1521 44.27876 140.2958 L44.27876 140.2958 C44.11172 140.6382 43.94469 140.9807 43.77767 141.3231 L43.77767 141.3231 C43.52293 141.8454 43.26819 142.3676 43.01346 142.8899 L43.01346 142.8899 C42.59257 142.5113 42.17124 142.1327 41.75035 141.7541 L41.75035 141.7541 C41.47446 141.506 41.19814 141.2574 40.92224 141.0093 L40.92224 141.0093 C40.80766 140.9062 40.60052 140.6413 40.42688 140.6907 L40.42688 140.6907 C40.25191 140.7383 40.18845 141.0737 40.13336 141.2248 L40.13336 141.2248 C40.00114 141.5845 39.86892 141.9445 39.7367 142.3042 L39.7367 142.3042 C39.5353 142.8529 39.33345 143.4016 39.13204 143.9503 L39.13204 143.9503 C38.27572 143.3504 37.41941 142.7506 36.56353 142.1508 L36.56353 142.1508 C36.08491 141.8154 36.19861 142.4937 36.24973 142.7462 L36.24973 142.7462 C36.36697 143.3271 36.48375 143.9079 36.60098 144.4888 L36.60098 144.4888 C36.8685 145.8167 37.13646 147.1446 37.40398 148.4729 L37.40398 148.4729 C37.47537 148.8264 37.61244 149.1983 37.6023 149.558 L37.6023 149.558 C38.23254 152.7642 34.17703 154.5923 34.17703 154.5923 L34.17703 154.5923 C34.17703 156.4217 36.39605 157.0965 36.39605 157.0965 L36.39605 157.0965 L42.27746 157.0965 C42.27746 157.0965 42.45242 157.1278 42.3559 157.2243 L42.3559 157.2243 L41.57671 158.0035 C41.12806 158.4521 41.06019 159.1119 41.4251 159.4764 L41.4251 159.4764 L42.16948 160.2176 C42.5344 160.5826 43.19371 160.5147 43.64236 160.066 L43.64236 160.066 C43.64236 160.066 46.40436 157.9664 47.21616 157.2961 L47.21616 157.2961 L47.21616 157.2961 C47.21616 157.2961 47.46957 157.0943 47.87636 157.0943 L47.87636 157.0943 L59.33154 157.0943 C59.62682 157.118 60.14291 157.2238 60.77798 157.6227 L60.77798 157.6227 L60.77798 157.6227 C62.12218 158.479 64.73168 160.0656 64.73168 160.0656 L64.73168 160.0656 C65.20985 160.3772 65.84009 160.5821 66.20456 160.2172 L66.20456 160.2172 L66.94762 159.4741 C67.31253 159.1092 67.24466 158.4499 66.79601 158.0013 L66.79601 158.0013 L66.06618 157.2714 C66.06618 157.2714 65.89517 157.0921 66.15608 156.9761 L66.15608 156.9761 C66.82553 156.6782 68.54919 155.9092 68.79819 155.7761 L68.79819 155.7761 C68.95597 155.691 69.46015 155.4658 69.12125 155.215 C69.12125 155.215 69.12125 155.215 69.12125 155.215 L69.12125 155.215 L69.12125 155.215 M40.71511 152.6068 C40.1479 152.6068 39.68779 152.1472 39.68779 151.5795 L39.68779 151.5795 C39.68779 151.0123 40.14745 150.5522 40.71511 150.5522 L40.71511 150.5522 C41.28275 150.5522 41.74242 151.0119 41.74242 151.5795 L41.74242 151.5795 C41.74242 152.1467 41.28231 152.6068 40.71511 152.6068 L40.71511 152.6068 L40.71511 152.6068 L40.71511 152.6068" stroke="#F14C38" stroke-width="0" xml:space="default" />
    </g>
    <g id="code1" xml:space="default" dynamic="true" exec="@p.IconSurroundingShape = null;" />
  </g>
</svg>